<svg xmlns="http://www.w3.org/2000/svg" viewBox="0 0 397.96 455.47"><defs><style>.cls-1{fill:#fff;}.cls-2{fill:#ca2613;}.cls-3{fill:#0094dc;}.cls-4{fill:#1b2a56;}.cls-5{fill:#006433;}</style></defs><g id="Layer_2" data-name="Layer 2"><g id="Layer_1-2" data-name="Layer 1"><polygon class="cls-1" points="298.48 47.75 198.98 0 99.49 47.75 0 95.51 0 381.37 44.37 405.83 88.71 430.29 130.02 408.1 198.98 371.05 267.95 408.1 309.25 430.29 353.59 405.83 397.96 381.37 397.96 95.51 298.48 47.75"/><polygon class="cls-2" points="80.71 56.76 0 95.51 0 315.33 80.71 315.33 80.71 56.76"/><polygon class="cls-2" points="317.25 315.33 397.96 315.33 397.96 95.51 317.25 56.76 317.25 315.33"/><polygon class="cls-3" points="311.64 54.08 298.48 47.76 198.98 0.01 99.49 47.76 86.32 54.08 86.32 182.16 311.64 182.16 311.64 54.08"/><polygon class="cls-4" points="138.15 346.84 0 346.84 0 362.19 168.85 362.19 138.15 346.84"/><polygon class="cls-4" points="44.37 405.83 51.28 409.64 127.15 409.64 130.02 408.1 138.19 403.71 40.52 403.71 44.37 405.83"/><polygon class="cls-4" points="88.71 430.29 109.71 419.01 68.27 419.01 88.71 430.29"/><polygon class="cls-4" points="130.03 342.78 86.33 320.94 0 320.94 0 343.07 130.6 343.07 130.03 342.78"/><polygon class="cls-4" points="25.58 395.47 153.53 395.47 169.47 386.9 10.04 386.9 25.58 395.47"/><polygon class="cls-4" points="242.69 355.4 229.11 362.19 397.96 362.19 397.96 346.84 259.81 346.84 242.69 355.4"/><polygon class="cls-4" points="311.64 320.94 311.64 320.94 267.36 343.07 397.96 343.07 397.96 320.94 311.64 320.94"/><polygon class="cls-4" points="244.44 395.47 372.39 395.47 387.92 386.9 228.5 386.9 244.44 395.47"/><polygon class="cls-4" points="309.25 430.29 329.7 419.01 288.26 419.01 309.25 430.29"/><polygon class="cls-4" points="267.95 408.1 270.83 409.64 346.68 409.64 353.59 405.83 357.44 403.71 259.78 403.71 267.95 408.1"/><path class="cls-1" d="M276.1,113.37a51.91,51.91,0,1,1-51.91-51.91A51.91,51.91,0,0,1,276.1,113.37Z"/><path class="cls-1" d="M279.25,137.68a37,37,0,0,0-11.52-1.61l-1.91,0-1.64,0c-3.57,0-4.69-.33-6.33-2.79-12.23-18.34-21.37-26.51-29.64-26.51A11.62,11.62,0,0,0,223,108,48.28,48.28,0,0,0,213,115.38c-4.17,3.67-7.47,6.56-11.49,6.56-10,0-25.89,9.08-36.39,15.1l-.55.31c-1.37.79-2.61,1.5-3.68,2.1-7.92,4.38-25.08,8.9-35.56,10.2-5.34.68-10.51,4.16-16.52,8.21-6.45,4.31-13.73,9.19-22.44,11.48v12.58H311.64V152.43C301.45,146.94,286.91,140.09,279.25,137.68Z"/><path class="cls-5" d="M86.32,176.31H311.64V158.78c-10-5.56-26.25-13.3-34.06-15.75-11.54-3.63-18.46,2.31-24.39-6.59s-19.12-27.68-27.68-23.4-14.17,14.5-24.06,14.5-29,11.86-37.9,16.81-27,9.55-37.57,10.87c-9.15,1.15-21.3,15.7-39.66,19.94Z"/><rect class="cls-1" x="86.32" y="179.1" width="225.32" height="3.81"/><path class="cls-1" d="M124.34,178.62s7.91-14.83,9.39-14.83,9.88,11.37,10.87,14.83Z"/><path class="cls-1" d="M170.56,179.36S176.63,167,177.77,167s7.6,9.48,8.36,12.36Z"/><path class="cls-1" d="M157,166.76c3-.27,9.39,7.91,9.39,12.85l-22.74.25S151.52,167.25,157,166.76Z"/><polygon class="cls-1" points="219.27 168.31 211.51 164.94 203.74 161.57 195.97 164.94 188.21 168.31 191.75 168.31 191.75 180.6 215.73 180.6 215.73 168.31 219.27 168.31"/><polygon class="cls-1" points="311.64 166.56 308.15 164.9 302.67 162.31 297.19 164.9 291.71 167.5 294.88 167.5 294.88 179.73 310.46 179.73 310.46 167.5 311.64 167.5 311.64 166.56"/><polygon class="cls-1" points="235.76 167.79 233.56 165.68 230.06 162.31 226.56 165.68 223.06 169.05 225.37 169.05 225.37 180.6 233.6 180.6 233.58 180.84 242.48 180.84 242.48 163.05 235.76 167.79"/><polygon class="cls-4" points="311.64 188.34 311.64 182.9 86.32 182.9 86.32 188.34 86.32 203.48 86.32 315.33 155.27 349.8 198.98 371.64 198.98 315.33 198.98 269.52 199.36 269.52 268.31 235.06 311.65 213.4 311.65 188.34 311.64 188.34"/><path class="cls-3" d="M196.51,82.88c1.32-1.32,3.63-5.6,8.57-1.64s12.53,1,17.8-10.55c0,0,1,9.23-3,14.5s3.3,7.58,3,11.2-9.89-4.28-16.81-2.3S195.2,103.65,182,101c0,0,9.23-3.63,11.54-8.24s6.25-5.44,8.89-7.08-2.47-2.15-5.76-.83Z"/><path class="cls-1" d="M272.14,147.48s-8.4,22.24-45,46c0,0,15.82,17.8,28.18,18.79S277.58,160.33,272.14,147.48Z"/><polygon class="cls-4" points="195.99 372.63 185.64 367.46 179.4 367.46 174.43 367.46 0 367.46 0 379.98 182.36 379.98 193 374.26 192.98 374.25 195.99 372.63"/><polygon class="cls-4" points="223.53 367.46 218.56 367.46 212.33 367.46 201.76 372.74 207.16 375.64 207.35 375.55 215.61 379.98 397.96 379.98 397.96 367.46 223.53 367.46"/><rect class="cls-1" x="299.64" y="166.82" width="12" height="9.5"/><path d="M238.84,431.15l3.77,14.18h-7.85Zm-1.2-7.67-9.46,32h3.63l2-6.93h9.63l1.9,6.93h9.33l-8.91-32Zm-28.59,2.65h2.44a4.65,4.65,0,0,1,4.65,2.88c.85,1.93,1.28,5.41,1.28,10.46s-.43,8.53-1.29,10.46a4.67,4.67,0,0,1-4.64,2.9h-2.44Zm3.47,29.34q14.65,0,14.65-16t-14.13-16H199.77v32Zm-31.13-24.32,3.78,14.18h-7.85Zm-1.19-7.67-9.47,32h3.63l2-6.93H186l1.89,6.93h9.33l-8.9-32Zm-30.77,0v32h22.43v-3.21H158.71V423.48Z"/></g></g></svg>